<svg width="1538" height="959" viewBox="0 0 1538 959" fill="none" xmlns="http://www.w3.org/2000/svg">
<path fill-rule="evenodd" clip-rule="evenodd" d="M978.946 22.7534C1152.99 55.5917 1265.9 102.233 1376.94 240.217C1511.49 407.417 1599.02 598.569 1483.38 779.364C1379.11 942.394 1205.73 910.885 1014.27 939.069C879.549 958.9 801.605 952.998 665.639 945.509C436.161 932.868 221.695 1026.47 86.565 840.566C-173.545 482.722 212.655 151.066 494.547 43.369C642.15 -13.0222 823.678 -6.54248 978.946 22.7534Z" fill="#323232"/>
<path fill-rule="evenodd" clip-rule="evenodd" d="M978.946 22.7534C1152.99 55.5917 1265.9 102.233 1376.94 240.217C1511.49 407.417 1599.02 598.569 1483.38 779.364C1379.11 942.394 1205.73 910.885 1014.27 939.069C879.549 958.9 801.605 952.998 665.639 945.509C436.161 932.868 221.695 1026.47 86.565 840.566C-173.545 482.722 212.655 151.066 494.547 43.369C642.15 -13.0222 823.678 -6.54248 978.946 22.7534Z" fill="#323232"/>
</svg>
