<svg width="36" height="36" viewBox="0 0 36 36" fill="none" xmlns="http://www.w3.org/2000/svg">
<path fill-rule="evenodd" clip-rule="evenodd" d="M4.5 10.6875C4.5 9.75552 5.25552 9 6.1875 9H29.8125C30.7445 9 31.5 9.75552 31.5 10.6875C31.5 11.6195 30.7445 12.375 29.8125 12.375H6.1875C5.25552 12.375 4.5 11.6195 4.5 10.6875ZM4.5 18C4.5 17.068 5.25552 16.3125 6.1875 16.3125H29.8125C30.7445 16.3125 31.5 17.068 31.5 18C31.5 18.932 30.7445 19.6875 29.8125 19.6875H6.1875C5.25552 19.6875 4.5 18.932 4.5 18ZM4.5 25.3125C4.5 24.3805 5.25552 23.625 6.1875 23.625H29.8125C30.7445 23.625 31.5 24.3805 31.5 25.3125C31.5 26.2445 30.7445 27 29.8125 27H6.1875C5.25552 27 4.5 26.2445 4.5 25.3125Z" fill="white"/>
</svg>
