<svg width="36" height="36" viewBox="0 0 36 36" fill="none" xmlns="http://www.w3.org/2000/svg">
<path fill-rule="evenodd" clip-rule="evenodd" d="M8.19348 8.28513C8.85249 7.62612 9.92095 7.62612 10.58 8.28513L27.2854 24.9905C27.9444 25.6495 27.9444 26.718 27.2854 27.377C26.6263 28.036 25.5579 28.036 24.8989 27.377L8.19348 10.6716C7.53447 10.0126 7.53447 8.94414 8.19348 8.28513Z" fill="white"/>
<path d="M8.57996 27.2851C7.92095 26.6261 7.92095 25.5576 8.57996 24.8986L25.2854 8.19324C25.9444 7.53423 27.0128 7.53423 27.6718 8.19324C28.3309 8.85225 28.3309 9.92072 27.6718 10.5797L10.9664 27.2851C10.3074 27.9441 9.23897 27.9441 8.57996 27.2851Z" fill="white"/>
</svg>
