<svg width="40" height="40" viewBox="0 0 40 40" fill="none" xmlns="http://www.w3.org/2000/svg">
<path d="M20 4C11.1648 4 4 11.1648 4 20C4 28.8352 11.1648 36 20 36C28.8352 36 36 28.8352 36 20C36 11.1648 28.8384 4 20 4ZM11.8944 20.5376L11.9616 20.4288L16.1248 13.9168C16.1856 13.824 16.3296 13.8336 16.3744 13.936C17.0688 15.4944 17.6704 17.4336 17.3888 18.64C17.2704 19.136 16.9408 19.808 16.5696 20.4288C16.5216 20.5184 16.4704 20.608 16.4128 20.6944C16.3872 20.7328 16.3424 20.7552 16.2944 20.7552H12.016C11.9008 20.7552 11.8336 20.6304 11.8944 20.5376ZM30.4448 22.7776C30.4448 22.8384 30.4096 22.8896 30.3584 22.912C30.0352 23.0496 28.9312 23.5584 28.4736 24.1952C27.3024 25.824 26.4096 28.1536 24.4096 28.1536H16.0704C13.1136 28.1536 10.72 25.7504 10.72 22.784V22.688C10.72 22.6112 10.784 22.5472 10.864 22.5472H15.5104C15.6032 22.5472 15.6704 22.6304 15.664 22.7232C15.6288 23.024 15.6864 23.3344 15.8304 23.616C16.1056 24.176 16.6784 24.5248 17.296 24.5248H19.5968V22.7296H17.3216C17.2064 22.7296 17.136 22.5952 17.2032 22.4992C17.2288 22.4608 17.2544 22.4224 17.2864 22.3776C17.5008 22.0704 17.808 21.5968 18.1152 21.056C18.3232 20.6912 18.5248 20.3008 18.688 19.9104C18.72 19.84 18.7456 19.7664 18.7744 19.696C18.8192 19.5712 18.864 19.4528 18.896 19.3376C18.928 19.2384 18.9568 19.136 18.9824 19.04C19.0592 18.7072 19.0912 18.3552 19.0912 17.9904C19.0912 17.8464 19.0848 17.696 19.072 17.5552C19.0656 17.3984 19.0464 17.2416 19.0272 17.0848C19.0144 16.9472 18.9888 16.8096 18.9632 16.6688C18.928 16.4608 18.8832 16.2528 18.832 16.0448L18.8128 15.9648C18.7744 15.8208 18.7392 15.6864 18.6944 15.5424C18.5632 15.0944 18.416 14.656 18.256 14.2464C18.1984 14.0832 18.1344 13.9264 18.0672 13.7728C17.9712 13.536 17.872 13.3216 17.7824 13.12C17.7344 13.0272 17.696 12.944 17.6576 12.8576C17.6128 12.7616 17.568 12.6656 17.52 12.5728C17.488 12.5024 17.4496 12.4352 17.424 12.3712L17.1424 11.8528C17.104 11.7824 17.168 11.696 17.2448 11.7184L19.0048 12.1952H19.0112C19.0144 12.1952 19.0144 12.1952 19.0176 12.1952L19.248 12.2624L19.504 12.3328L19.5968 12.3584V11.3152C19.5968 10.8096 20 10.4 20.5024 10.4C20.752 10.4 20.9792 10.5024 21.1392 10.6688C21.3024 10.8352 21.4048 11.0624 21.4048 11.3152V12.8672L21.5936 12.9184C21.6064 12.9248 21.6224 12.9312 21.6352 12.9408C21.68 12.9728 21.7472 13.024 21.8304 13.088C21.8976 13.1392 21.968 13.2032 22.0512 13.2704C22.2208 13.408 22.4256 13.584 22.6464 13.7856C22.704 13.8368 22.7616 13.888 22.816 13.9424C23.1008 14.208 23.4208 14.5184 23.728 14.864C23.8144 14.9632 23.8976 15.0592 23.984 15.1648C24.0672 15.2704 24.16 15.3728 24.2368 15.4752C24.3424 15.6128 24.4512 15.7568 24.5504 15.9072C24.5952 15.9776 24.6496 16.0512 24.6912 16.1216C24.8192 16.3104 24.928 16.5056 25.0336 16.7008C25.0784 16.7904 25.1232 16.8896 25.1616 16.9856C25.28 17.248 25.3728 17.5136 25.4304 17.7824C25.4496 17.84 25.4624 17.9008 25.4688 17.9584V17.9712C25.488 18.048 25.4944 18.1312 25.5008 18.2176C25.5264 18.4896 25.5136 18.7648 25.456 19.04C25.4304 19.1552 25.3984 19.264 25.36 19.3824C25.3184 19.4944 25.28 19.6096 25.2288 19.7216C25.1296 19.9488 25.0144 20.1792 24.8768 20.3904C24.832 20.4704 24.7776 20.5536 24.7264 20.6336C24.6688 20.7168 24.608 20.7968 24.5568 20.8736C24.4832 20.9728 24.4064 21.0752 24.3264 21.168C24.256 21.264 24.1856 21.36 24.1056 21.4464C23.9968 21.5776 23.8912 21.6992 23.7792 21.8176C23.7152 21.8944 23.6448 21.9744 23.5712 22.0448C23.5008 22.1248 23.4272 22.1952 23.3632 22.2592C23.2512 22.3712 23.1616 22.4544 23.0848 22.528L22.9024 22.6912C22.8768 22.7168 22.8416 22.7296 22.8064 22.7296H21.4048V24.5248H23.168C23.5616 24.5248 23.936 24.3872 24.24 24.128C24.3424 24.0384 24.7936 23.648 25.328 23.0592C25.3472 23.0368 25.3696 23.024 25.3952 23.0176L30.2624 21.6096C30.3552 21.584 30.4448 21.6512 30.4448 21.7472V22.7776Z" fill="white"/>
</svg>
