<svg width="774" height="393" viewBox="0 0 774 393" fill="none" xmlns="http://www.w3.org/2000/svg">
<g filter="url(#filter0_d_12_10)">
<path d="M223.799 7.99734C28.5 -1.00266 11 71.2511 11 195.872C11 297.724 28.5 381.997 223.799 367.997C524.916 364.748 697.528 395.718 670 195.872C657.718 106.712 728.5 148.998 751.095 110.809C753.58 106.439 755 101.384 755 95.9976C755 79.429 741.569 65.9976 725 65.9976C720.464 65.9976 716.164 67.0041 712.31 68.806C704.5 71.9976 694.485 74.2777 684.5 73.9976C623.443 72.2846 530.5 46.6583 530.5 46.6583C436.128 7.99738 315.261 7.99734 223.799 7.99734Z" fill="#323232"/>
</g>
<defs>
<filter id="filter0_d_12_10" x="0" y="0.244629" width="774" height="392.279" filterUnits="userSpaceOnUse" color-interpolation-filters="sRGB">
<feFlood flood-opacity="0" result="BackgroundImageFix"/>
<feColorMatrix in="SourceAlpha" type="matrix" values="0 0 0 0 0 0 0 0 0 0 0 0 0 0 0 0 0 0 127 0" result="hardAlpha"/>
<feOffset dx="4" dy="8"/>
<feGaussianBlur stdDeviation="7.5"/>
<feComposite in2="hardAlpha" operator="out"/>
<feColorMatrix type="matrix" values="0 0 0 0 0 0 0 0 0 0 0 0 0 0 0 0 0 0 0.1 0"/>
<feBlend mode="normal" in2="BackgroundImageFix" result="effect1_dropShadow_12_10"/>
<feBlend mode="normal" in="SourceGraphic" in2="effect1_dropShadow_12_10" result="shape"/>
</filter>
</defs>
</svg>
