<svg width="40" height="40" viewBox="0 0 40 40" fill="none" xmlns="http://www.w3.org/2000/svg">
<path fill-rule="evenodd" clip-rule="evenodd" d="M28.3507 32.3554C28.3507 32.3554 27.2361 31.0273 26.3056 29.8859C30.3626 28.7432 31.9106 26.2443 31.9106 26.2443C30.7963 26.9834 29.6021 27.5944 28.3507 28.0657C26.9059 28.6656 25.4016 29.1108 23.8629 29.3938C21.2118 29.8807 18.4933 29.8703 15.846 29.3631C14.2888 29.0739 12.7647 28.6285 11.2968 28.0337C10.5203 27.7363 9.76519 27.3857 9.03693 26.9843C8.99124 26.9543 8.94587 26.9316 8.9005 26.9089C8.8532 26.8853 8.8059 26.8616 8.75828 26.8297C8.73518 26.8184 8.71642 26.807 8.70022 26.7973C8.67249 26.7805 8.65224 26.7683 8.63045 26.7683C8.07315 26.459 7.76382 26.243 7.76382 26.243C7.76382 26.243 9.24911 28.6831 13.1809 29.8552C12.2516 31.0286 11.1064 32.3873 11.1064 32.3873C4.26664 32.1713 1.66675 27.7257 1.66675 27.7257C1.66675 17.8758 6.12388 9.87929 6.12388 9.87929C10.581 6.57511 14.7902 6.66842 14.7902 6.66842L15.0995 7.0391C9.52776 8.61386 6.99051 11.0527 6.99051 11.0527C6.99051 11.0527 7.67052 10.682 8.8158 10.1873C12.1276 8.73656 14.7595 8.36588 15.846 8.24317C16.0194 8.20713 16.1956 8.18618 16.3726 8.18054C18.4466 7.91142 20.5454 7.89082 22.6243 8.11919C25.8886 8.49415 29.051 9.48987 31.9412 11.0527C31.9412 11.0527 29.496 8.73273 24.2336 7.16053L24.6669 6.66714C24.6669 6.66714 28.9068 6.57383 33.3345 9.88312C33.3345 9.88312 37.7916 17.8796 37.7916 27.7295C37.7916 27.7275 37.7833 27.7399 37.7662 27.7651C37.483 28.1842 34.8027 32.1516 28.3507 32.3554ZM10.8007 21.4602C10.8007 19.5774 12.1939 18.064 13.9578 18.064C15.7218 18.064 17.147 19.5735 17.115 21.4602C17.115 23.3443 15.7218 24.8564 13.9578 24.8564C12.2246 24.8564 10.8007 23.343 10.8007 21.4602ZM22.0975 21.4602C22.0975 19.5774 23.4908 18.064 25.2547 18.064C26.9892 18.064 28.4119 19.5761 28.4119 21.4602C28.4119 23.3443 27.0199 24.8564 25.2547 24.8564C23.5214 24.8564 22.0975 23.343 22.0975 21.4602Z" fill="white"/>
</svg>
